<?xml version="1.0" encoding="iso-8859-1"?>
<!-- Generator: Adobe Illustrator 23.0.2, SVG Export Plug-In . SVG Version: 6.00 Build 0)  -->
<svg version="1.1" id="Layer_1" xmlns="http://www.w3.org/2000/svg" xmlns:xlink="http://www.w3.org/1999/xlink" x="0px" y="0px"
	 viewBox="0 0 64 64" style="enable-background:new 0 0 64 64;" xml:space="preserve">
<g>
	<linearGradient id="SVGID_1_" gradientUnits="userSpaceOnUse" x1="32.0731" y1="97.25" x2="32.0731" y2="9.1363">
		<stop  offset="0.0176" style="stop-color:#97EFE7"/>
		<stop  offset="0.5207" style="stop-color:#3DB6D3"/>
		<stop  offset="1" style="stop-color:#3D6FD3"/>
	</linearGradient>
	<circle style="fill:url(#SVGID_1_);" cx="32.073" cy="32" r="28"/>
	<g>
		<g>
			<g>
				<path style="fill:#161A49;" d="M43.708,28.712l0.01-0.024C43.718,28.688,43.714,28.696,43.708,28.712z"/>
				<path style="fill:#161A49;" d="M47.281,42.495c-9.536-1.296-3.778-13.3-3.574-13.783l-7.726,6.906
					c-3.347-4.939-1.791-2.133-0.369-7.1c0.598-2.092-1.678-3.836-3.55-2.728l-2.084,1.234c0,0-16.3,7.679-15.783,18.518
					c0.137,2.882-0.524,4.911-1.69,6.475C17.552,56.954,24.455,60,32.073,60c6.11,0,11.758-1.963,16.361-5.284
					c0.293-1.054,0.546-2.125,0.713-3.226C49.735,47.621,50.012,42.866,47.281,42.495z"/>
				<path style="fill:#F9AA8F;" d="M19.157,50.48c0,0,0.998,1.569,1.543,1.932c0,0-0.908,0.499,0,0.908
					c0.908,0.409,3.813-1.15,0.136-3.782"/>
				<linearGradient id="SVGID_2_" gradientUnits="userSpaceOnUse" x1="12.5042" y1="42.723" x2="49.5354" y2="42.723">
					<stop  offset="0" style="stop-color:#082338"/>
					<stop  offset="1" style="stop-color:#09283F"/>
				</linearGradient>
				<path style="fill:url(#SVGID_2_);" d="M47.281,42.495c-9.536-1.296-3.778-13.3-3.574-13.783l-7.726,6.906
					c-3.347-4.938-1.791-2.133-0.369-7.1c0.598-2.092-1.678-3.836-3.55-2.728l-2.084,1.234c0,0-16.3,7.679-15.783,18.518
					c0.137,2.882-0.524,4.911-1.69,6.475c1.287,1.258,2.694,2.392,4.203,3.385c0.983-1.828,1.181-4.172,0.895-7.108
					c-0.745-7.654,8.057-7.634,7.879,0.606c-0.059,2.726-1.21,6.07-2.79,9.482C25.625,59.427,28.781,60,32.073,60
					c3.127,0,6.131-0.52,8.939-1.466c0.649-1.894,1.398-4.653,1.833-8.185c0.882-7.165,6.778-6.214,6.463-0.019
					C49.76,46.729,49.744,42.83,47.281,42.495z"/>
			</g>
			<linearGradient id="SVGID_3_" gradientUnits="userSpaceOnUse" x1="69.2859" y1="21.2954" x2="10.4532" y2="50.0303">
				<stop  offset="0" style="stop-color:#7FF1A4"/>
				<stop  offset="0.5173" style="stop-color:#2FBCA4"/>
				<stop  offset="1" style="stop-color:#2F7DA4"/>
			</linearGradient>
			<path style="fill:url(#SVGID_3_);" d="M47.452,8.605l-0.016-0.003c0,0-1.266,5.928-4.13,10.131
				c-0.685,1.005-2.985,2.825-4.208,4.227c-2.599,2.984-4.602,3.151-8.431,3.525c0,0-4.917,1.149-7.278,5.524
				c-2.646,4.895-9.984,13.339-3.752,19.159l1.725-1.246c0,0-3.806-6.81,7.097-12.824c0.628-0.347,0.48,1.619,0.112,3.756
				c-0.027,0.159-0.059,0.318-0.094,0.475c-0.035,0.158-0.075,0.316-0.118,0.472c-0.043,0.156-0.09,0.311-0.14,0.465
				c-0.051,0.154-0.105,0.306-0.163,0.457c-0.058,0.151-0.12,0.301-0.185,0.449c-0.266,0.605-0.705,1.13-1.028,1.707
				c-0.358,0.639-0.632,1.399-0.854,2.132c-0.233,0.77-0.368,1.568-0.55,2.351c-0.035,0.149-0.069,0.297-0.105,0.445
				c-0.326,1.349-0.67,2.694-1.081,4.02c-0.368,1.191-0.768,2.404-1.317,3.526c-0.154,0.313-0.314,0.632-0.475,0.952
				c1.919,0.701,3.938,1.19,6.027,1.457c1.764-2.348,3.442-4.825,4.874-7.354c0.205,0.37,0.389,0.745,0.551,1.112
				c0.074,0.165,0.143,0.356,0.209,0.521c0.767,1.934,0.994,3.899,0.868,5.805c1.929-0.2,3.799-0.598,5.591-1.169
				c0.83-4.728,0.084-9.62-0.885-13.348c-0.79-3.042-0.525-6.26,0.75-9.132l4.511-10.156c0.371-0.837,0.775-1.658,1.193-2.472
				c2.415-4.696,2.396-7.888,2.932-13.804C48.555,9.36,48.011,8.973,47.452,8.605z"/>
			<linearGradient id="SVGID_4_" gradientUnits="userSpaceOnUse" x1="65.0917" y1="49.8406" x2="30.2166" y2="56.0906">
				<stop  offset="0" style="stop-color:#7FF1A4"/>
				<stop  offset="0.5173" style="stop-color:#2FBCA4"/>
				<stop  offset="1" style="stop-color:#2F7DA4"/>
			</linearGradient>
			<path style="fill:url(#SVGID_4_);" d="M38.039,50.99c-2.368-1.766-4.194,0.591-4.727,1.408c0.203,0.367,0.385,0.739,0.547,1.103
				c0.074,0.165,0.143,0.356,0.209,0.52c0.771,1.944,0.997,3.919,0.867,5.835c1.203-0.122,2.38-0.328,3.532-0.598
				C39.248,56.242,39.879,52.362,38.039,50.99z"/>
			<g>
				<linearGradient id="SVGID_5_" gradientUnits="userSpaceOnUse" x1="63.3366" y1="58.4191" x2="32.5865" y2="17.044">
					<stop  offset="0" style="stop-color:#7FF1A4"/>
					<stop  offset="0.5173" style="stop-color:#2FBCA4"/>
					<stop  offset="1" style="stop-color:#2F7DA4"/>
				</linearGradient>
				<path style="fill:url(#SVGID_5_);" d="M34.558,29.476c0,0,2.507,1.212,2.985-0.05c0.477-1.262,0.738-3.536,0.738-3.536
					s2.737-3.854,4.949-7.152c-0.706,1.01-2.975,2.81-4.188,4.2c-2.594,2.978-4.595,3.15-8.409,3.523l-0.226,0.275L34.558,29.476z"
					/>
			</g>
			<linearGradient id="SVGID_6_" gradientUnits="userSpaceOnUse" x1="51.1824" y1="67.452" x2="20.4325" y2="26.077">
				<stop  offset="0" style="stop-color:#7FF1A4"/>
				<stop  offset="0.5173" style="stop-color:#2FBCA4"/>
				<stop  offset="1" style="stop-color:#2F7DA4"/>
			</linearGradient>
			<path style="fill:url(#SVGID_6_);" d="M24.664,34.65c5.111-1.791,2.304-5.023,4.541-5.447c2.237-0.424,5.168,0.444,5.168,0.444
				l-2.265-2.32l-2.035-0.707c-1.338,0.436-4.854,1.871-6.74,5.367c-1.079,1.996-2.938,4.583-4.34,7.341
				C19.231,38.87,20.854,35.985,24.664,34.65z"/>
			<linearGradient id="SVGID_7_" gradientUnits="userSpaceOnUse" x1="64.2569" y1="45.1825" x2="29.3818" y2="51.4325">
				<stop  offset="0" style="stop-color:#7FF1A4"/>
				<stop  offset="0.5173" style="stop-color:#2FBCA4"/>
				<stop  offset="1" style="stop-color:#2F7DA4"/>
			</linearGradient>
			<path style="fill:url(#SVGID_7_);" d="M25.909,47.205c-0.649,2.485-1.46,6.71-3.028,10.128c-0.154,0.314-0.314,0.632-0.475,0.952
				c0.587,0.216,1.187,0.407,1.792,0.584c1.501-2.906,2.661-5.954,2.04-7.758c-0.841-2.444-0.196-4.543,0.336-5.682
				C26.293,45.996,26.069,46.59,25.909,47.205z"/>
			<path style="fill:#F9AA8F;" d="M37.095,23.259c-0.277-0.143-0.276-0.54-0.002-0.688c0.654-0.352,1.183-0.708,1.41-1.023
				c0.212-0.296-0.098-0.815-0.475-1.377c-0.134-0.202-0.319-0.505-0.473-0.76c-0.143-0.237-0.115-0.54,0.071-0.745
				c0.172-0.189,0.266-0.441,0.004-0.711c-1.022-1.064-3.891-2.136-4.912-1.84c-4.492,1.299-2.743,3.148-2.743,3.148l1.592,3.211
				c0.712,1.436,0.222,3.188-1.147,4.021c-0.017,0.011-0.035,0.021-0.053,0.032c0,0,4.26,0.415,5.342,0.074
				c1.467-0.457,3.333-3.663,3.333-3.663S38.147,23.802,37.095,23.259z"/>
			<linearGradient id="SVGID_8_" gradientUnits="userSpaceOnUse" x1="41.1233" y1="30.1122" x2="21.4247" y2="8.7797">
				<stop  offset="0" style="stop-color:#F9AA8F"/>
				<stop  offset="1" style="stop-color:#F78E6B"/>
			</linearGradient>
			<path style="fill:url(#SVGID_8_);" d="M36.362,25.783c-0.07-0.413-1.474,0.042-1.558-1.052c-0.083-1.094,2.172-2.063,2.172-2.063
				h0.004c0.031-0.037,0.067-0.071,0.113-0.097c0.383-0.207,0.722-0.414,0.983-0.614l0.426-0.409c0,0-1.31,0.517-2.494-0.646
				c-1.184-1.163-2.056-2.783-1.09-3.053c0.966-0.27,2.73,1.716,2.73,1.716v0c-0.032-0.052-0.063-0.105-0.093-0.154
				c-0.143-0.237-0.115-0.54,0.071-0.745c0.043-0.047,0.081-0.098,0.11-0.152l0.01-0.124c0,0-0.223,0.434-0.616-0.05
				c-0.392-0.483-1.474-0.928-2.014-1.385c-0.54-0.457,0.199-0.357,0.199-0.357l-0.09-0.055c-0.99-0.376-1.987-0.58-2.507-0.429
				c-1.542,0.446-2.349,0.957-2.743,1.436l-0.11,1.567c0.06,0.092,0.11,0.145,0.11,0.145l1.592,3.211
				c0.712,1.436,0.222,3.188-1.147,4.021c-0.017,0.011-0.035,0.021-0.053,0.032c0,0,2.568,0.25,4.223,0.202
				c0.513-0.043,0.877-0.076,0.955-0.088l0.002,0c0.017-0.003,0.035-0.006,0.053-0.011c0.015-0.003,0.028-0.008,0.042-0.011
				C35.983,26.52,36.426,26.16,36.362,25.783z"/>
			<linearGradient id="XMLID_2_" gradientUnits="userSpaceOnUse" x1="24.3017" y1="25.2745" x2="32.9645" y2="44.9323">
				<stop  offset="0.0163" style="stop-color:#98372A"/>
				<stop  offset="0.3438" style="stop-color:#6A2922"/>
				<stop  offset="0.7867" style="stop-color:#301818"/>
				<stop  offset="1" style="stop-color:#1A1114"/>
			</linearGradient>
			<path id="XMLID_2224_" style="fill:url(#XMLID_2_);" d="M19.708,34.164c0,0,9.292-9.538,14.183-4.575
				c0.128,0.129,0.328,0.153,0.482,0.057l0,0c0.193-0.12,0.243-0.377,0.111-0.561c-0.595-0.826-2.278-2.838-4.509-2.765
				C26.903,26.422,19.708,34.164,19.708,34.164z"/>
			<linearGradient id="XMLID_3_" gradientUnits="userSpaceOnUse" x1="36.9185" y1="19.7145" x2="45.5812" y2="39.3723">
				<stop  offset="0.0163" style="stop-color:#98372A"/>
				<stop  offset="0.3438" style="stop-color:#6A2922"/>
				<stop  offset="0.7867" style="stop-color:#301818"/>
				<stop  offset="1" style="stop-color:#1A1114"/>
			</linearGradient>
			<path id="XMLID_2222_" style="fill:url(#XMLID_3_);" d="M40.364,21.594c0,0-2.078,2.813-1.879,5.897
				c0.01,0.156-0.082,0.3-0.229,0.349l-0.032,0.011c-0.212,0.071-0.433-0.079-0.445-0.302c-0.064-1.241-0.143-4.697,0.909-5.106
				C38.687,22.443,39.54,22.125,40.364,21.594z"/>
			<linearGradient id="SVGID_9_" gradientUnits="userSpaceOnUse" x1="53.5671" y1="66.9714" x2="27.0673" y2="25.0967">
				<stop  offset="0" style="stop-color:#7FF1A4"/>
				<stop  offset="0.5173" style="stop-color:#2FBCA4"/>
				<stop  offset="1" style="stop-color:#2F7DA4"/>
			</linearGradient>
			<path style="fill:url(#SVGID_9_);" d="M31.563,35.603c0.062-0.156,0.063-0.347,0.027-0.549c-0.085-0.474-0.742-0.55-0.923-0.104
				c-0.554,1.366-1.829,1.954-2.175,2.093c0.522-0.11,0.371,1.762,0.022,3.79c-0.027,0.159-0.059,0.318-0.094,0.476
				c-0.035,0.158-0.075,0.316-0.118,0.472c-0.043,0.156-0.09,0.311-0.14,0.465c-0.051,0.154-0.105,0.306-0.163,0.457
				c-0.058,0.151-0.119,0.301-0.185,0.449c-0.065,0.148-0.134,0.295-0.206,0.44c-0.072,0.145-0.148,0.289-0.227,0.43
				c-0.086,0.154-0.177,0.306-0.271,0.455c-0.007,0.011-0.014,0.021-0.02,0.032c0.108-0.137,0.206-0.281,0.307-0.423
				c0.096-0.134,0.192-0.269,0.286-0.405c0.089-0.127,0.177-0.255,0.263-0.384c0.081-0.12,0.162-0.241,0.242-0.363
				c0.075-0.114,0.148-0.228,0.221-0.342c0.068-0.107,0.136-0.215,0.202-0.323c0.062-0.101,0.124-0.202,0.184-0.304
				c0.056-0.095,0.112-0.19,0.168-0.285c0.244-0.422,0.491-0.831,0.688-1.279c0.191-0.436,0.386-0.895,0.76-1.207
				c0.528-0.441,1.283-0.375,1.933-0.418c0.679-0.044,1.358-0.082,2.037-0.128c1.308-0.088,2.676-0.147,3.944-0.504
				c0.87-0.245,1.095,1.185,1.095,1.185l0.003-0.005c0.196-1.077,0.518-2.134,0.968-3.148l2.453-5.524
				C40.364,37.583,31.307,36.243,31.563,35.603z"/>
			<linearGradient id="SVGID_10_" gradientUnits="userSpaceOnUse" x1="33.5781" y1="10.4007" x2="32.7447" y2="28.4007">
				<stop  offset="0" style="stop-color:#182EBD"/>
				<stop  offset="0.5816" style="stop-color:#0D1226"/>
			</linearGradient>
			<path style="fill:url(#SVGID_10_);" d="M36.454,16.836c0.3-0.052,0.666-0.183,0.856-0.508c0.092-0.157-0.084-0.333-0.242-0.244
				c-0.268,0.152-0.682,0.179-1.238-0.377c-1.038-1.038-2.221-2.94-5.742,1.693c-0.132,0.174-0.281,0.337-0.429,0.497
				c-0.352,0.382-0.94,1.525-0.02,2.114c1.076,0.689,2.066,2.802,2.232,3.548c0.02,0.089,0.13,0.119,0.192,0.053
				c0.398-0.421,1.292-1.514,0.62-2.213c-0.847-0.881-0.968-1.94-0.091-2.031c0.483-0.05,0.782,0.248,0.954,0.526
				c0.122,0.197,0.394,0.232,0.553,0.063l0.009-0.01c0.126-0.133,0.126-0.34,0.001-0.475c-0.415-0.448-1.163-1.478-0.277-2.344
				c0.779-0.761,1.54-0.569,1.911-0.397C35.966,16.836,36.212,16.878,36.454,16.836z"/>
			<linearGradient id="SVGID_11_" gradientUnits="userSpaceOnUse" x1="37.1716" y1="40.1467" x2="35.1716" y2="8.8966">
				<stop  offset="0" style="stop-color:#F7DC8D"/>
				<stop  offset="0.459" style="stop-color:#F27C1C"/>
				<stop  offset="0.9922" style="stop-color:#F2591C"/>
			</linearGradient>
			<path style="fill:url(#SVGID_11_);" d="M33.999,33.164c0.99,0.425,3.431,1.089,5.331-1.561c0.237-0.331,0.733-0.319,0.954,0.023
				l0,0c0.118,0.183,0.124,0.417,0.014,0.605l-2.95,5.063c-0.188,0.322-0.626,0.385-0.897,0.129l-3.226-3.054
				c-0.197-0.186-0.238-0.484-0.099-0.717l0.151-0.253C33.426,33.151,33.734,33.05,33.999,33.164z"/>
		</g>
		
			<linearGradient id="SVGID_12_" gradientUnits="userSpaceOnUse" x1="620.8672" y1="28.2706" x2="620.8672" y2="1.4535" gradientTransform="matrix(-1 0 0 1 640.0243 0)">
			<stop  offset="0.0176" style="stop-color:#97EFE7"/>
			<stop  offset="0.5207" style="stop-color:#3DB6D3"/>
			<stop  offset="1" style="stop-color:#3D6FD3"/>
		</linearGradient>
		<path style="fill:url(#SVGID_12_);" d="M13.118,19.897c0-0.319,0.6-0.606,1.56-0.808c0.718-0.151,1.325-0.603,1.724-1.218
			C16.743,17.347,17.334,17,18.007,17c0.669,0,1.257,0.343,1.599,0.863c0.025,0.038,0.051,0.076,0.078,0.113
			c0.462,0.64,1.204,1.016,1.992,1.068c2.034,0.133,3.521,0.557,3.521,1.059c0,0.319-0.6,0.606-1.56,0.808
			c-0.718,0.151-1.325,0.603-1.724,1.218C21.571,22.653,20.98,23,20.307,23c-0.669,0-1.257-0.343-1.599-0.863
			c-0.003-0.005-0.007-0.011-0.011-0.016c-0.461-0.692-1.233-1.11-2.062-1.165C14.603,20.822,13.118,20.399,13.118,19.897z"/>
		<linearGradient id="SVGID_13_" gradientUnits="userSpaceOnUse" x1="9.8887" y1="35.708" x2="9.8887" y2="9.2323">
			<stop  offset="0.0176" style="stop-color:#97EFE7"/>
			<stop  offset="0.5207" style="stop-color:#3DB6D3"/>
			<stop  offset="1" style="stop-color:#3D6FD3"/>
		</linearGradient>
		<path style="fill:url(#SVGID_13_);" d="M15.85,27.441c0-0.315-0.593-0.599-1.54-0.797c-0.709-0.149-1.308-0.595-1.702-1.202
			c-0.337-0.518-0.92-0.861-1.584-0.861c-0.66,0-1.241,0.339-1.578,0.852c-0.025,0.038-0.05,0.075-0.077,0.111
			c-0.456,0.632-1.189,1.003-1.966,1.054c-2.008,0.132-3.476,0.55-3.476,1.045c0,0.315,0.593,0.599,1.54,0.797
			c0.709,0.149,1.308,0.595,1.702,1.202c0.336,0.518,0.92,0.861,1.584,0.861c0.66,0,1.241-0.339,1.578-0.852
			c0.003-0.005,0.007-0.011,0.01-0.016c0.455-0.683,1.217-1.096,2.036-1.15C14.384,28.354,15.85,27.937,15.85,27.441z"/>
		
			<linearGradient id="SVGID_14_" gradientUnits="userSpaceOnUse" x1="680.6467" y1="41.3657" x2="680.6467" y2="14.89" gradientTransform="matrix(-1 0 0 1 732.0126 0)">
			<stop  offset="0.0176" style="stop-color:#97EFE7"/>
			<stop  offset="0.5207" style="stop-color:#3DB6D3"/>
			<stop  offset="1" style="stop-color:#3D6FD3"/>
		</linearGradient>
		<path style="fill:url(#SVGID_14_);" d="M45.404,33.099c0-0.315,0.593-0.599,1.54-0.797c0.709-0.149,1.308-0.595,1.702-1.202
			c0.337-0.518,0.92-0.861,1.584-0.861c0.66,0,1.241,0.339,1.578,0.852c0.025,0.038,0.051,0.075,0.077,0.112
			c0.456,0.631,1.189,1.003,1.966,1.054c2.008,0.132,3.476,0.55,3.476,1.045c0,0.315-0.593,0.599-1.54,0.797
			c-0.709,0.149-1.308,0.595-1.702,1.202c-0.336,0.518-0.92,0.861-1.584,0.861c-0.66,0-1.241-0.339-1.578-0.852
			c-0.003-0.005-0.007-0.01-0.01-0.016c-0.455-0.683-1.217-1.096-2.036-1.15C46.87,34.012,45.404,33.594,45.404,33.099z"/>
		
			<linearGradient id="SVGID_15_" gradientUnits="userSpaceOnUse" x1="49.7242" y1="16.4012" x2="49.7242" y2="-4.3544" gradientTransform="matrix(1 0 0 1 -9.3606 0)">
			<stop  offset="0.0176" style="stop-color:#97EFE7"/>
			<stop  offset="0.5207" style="stop-color:#3DB6D3"/>
			<stop  offset="1" style="stop-color:#3D6FD3"/>
		</linearGradient>
		<path style="fill:url(#SVGID_15_);" d="M45.037,9.92c0-0.247-0.465-0.469-1.208-0.625c-0.556-0.117-1.025-0.466-1.334-0.942
			c-0.264-0.406-0.721-0.675-1.242-0.675c-0.517,0-0.973,0.266-1.237,0.668c-0.019,0.03-0.04,0.059-0.06,0.087
			c-0.358,0.495-0.932,0.787-1.541,0.826c-1.575,0.103-2.725,0.431-2.725,0.82c0,0.247,0.465,0.469,1.208,0.625
			c0.556,0.116,1.025,0.466,1.334,0.942c0.264,0.406,0.721,0.675,1.242,0.675c0.518,0,0.973-0.266,1.237-0.668
			c0.003-0.004,0.006-0.008,0.008-0.012c0.357-0.535,0.954-0.859,1.596-0.902C43.888,10.636,45.037,10.309,45.037,9.92z"/>
	</g>
	<path id="XMLID_3145_" style="fill:#F9AA8F;" d="M47.384,8.712l-0.103-2.725c0,0,1.371-1.249,1.715-1.838
		c0.345-0.587,0.44,0.71,0.056,1.234s-0.505,1.386-0.28,1.746c0.224,0.363,0.513-1.245,0.775-0.697
		c0.264,0.552-0.451,2.474-0.451,2.474L47.384,8.712z"/>
	<linearGradient id="SVGID_16_" gradientUnits="userSpaceOnUse" x1="65.8574" y1="1.7999" x2="-15.5205" y2="41.5463">
		<stop  offset="0" style="stop-color:#7FF1A4"/>
		<stop  offset="0.5173" style="stop-color:#2FBCA4"/>
		<stop  offset="1" style="stop-color:#2F7DA4"/>
	</linearGradient>
	<path style="fill:url(#SVGID_16_);" d="M46.446,12.088c0.602,0.145,1.242,0.225,1.908,0.225c0.173,0,0.343-0.009,0.513-0.02
		c0.088-1.04,0.179-2.162,0.299-3.404l-1.73-0.286C47.436,8.602,47.12,10.083,46.446,12.088z"/>
</g>
</svg>
