<?xml version="1.0" standalone="no"?><!DOCTYPE svg PUBLIC "-//W3C//DTD SVG 1.1//EN" "http://www.w3.org/Graphics/SVG/1.1/DTD/svg11.dtd"><svg t="1608567574097" class="icon" viewBox="0 0 1024 1024" version="1.1" xmlns="http://www.w3.org/2000/svg" p-id="1512" xmlns:xlink="http://www.w3.org/1999/xlink" width="200" height="200"><defs><style type="text/css"></style></defs><path d="M737.28 825.36448a20.48 20.48 0 0 0 20.48-20.48v-503.808c0-0.45056-0.22528-0.83968-0.26624-1.29024a19.98848 19.98848 0 0 0-1.08544-5.36576c-0.24576-0.69632-0.43008-1.35168-0.73728-2.00704a19.968 19.968 0 0 0-3.66592-5.4272c-0.12288-0.12288-0.18432-0.3072-0.32768-0.43008l-0.06144-0.1024-112.64-110.592a20.7872 20.7872 0 0 0-5.77536-3.85024c-0.63488-0.28672-1.29024-0.45056-1.96608-0.67584a20.80768 20.80768 0 0 0-5.36576-1.08544c-0.4096-0.02048-0.77824-0.24576-1.2288-0.24576H286.72a20.48 20.48 0 0 0-20.48 20.48v614.4a20.48 20.48 0 0 0 20.48 20.48h450.56z m-92.16-586.05568l42.06592 41.30816H645.12v-41.30816zM307.2 210.96448h296.96v90.112a20.48 20.48 0 0 0 20.48 20.48H716.8v462.848H307.2v-573.44z" p-id="1513"></path><path d="M659.06688 501.16608H375.23456a20.48 20.48 0 1 0 0 40.96H659.0464a20.48 20.48 0 0 0 0.02048-40.96zM659.06688 415.15008H375.23456a20.48 20.48 0 1 0 0 40.96H659.0464a20.48 20.48 0 0 0 0.02048-40.96zM659.06688 587.1616H375.23456a20.48 20.48 0 1 0 0 40.96H659.0464a20.48 20.48 0 0 0 0.02048-40.96zM659.06688 673.1776H375.23456a20.48 20.48 0 1 0 0 40.96H659.0464a20.48 20.48 0 0 0 0.02048-40.96z" p-id="1514"></path></svg>