<?xml version="1.0" standalone="no"?><!DOCTYPE svg PUBLIC "-//W3C//DTD SVG 1.1//EN" "http://www.w3.org/Graphics/SVG/1.1/DTD/svg11.dtd"><svg t="1607399292887" class="icon" viewBox="0 0 1024 1024" version="1.1" xmlns="http://www.w3.org/2000/svg" p-id="2737" xmlns:xlink="http://www.w3.org/1999/xlink" width="200" height="200"><defs><style type="text/css"></style></defs><path d="M515.5 153c-193.2 0-349.9 156.6-349.9 349.9s156.6 349.9 349.9 349.9 349.9-156.6 349.9-349.9S708.8 153 515.5 153z m198 547.8c-52.5 52.5-123.7 82-197.9 82s-145.4-29.5-197.9-82-82-123.7-82-197.9 29.5-145.4 82-197.9 123.7-82 197.9-82 145.4 29.5 197.9 82 82 123.7 82 197.9-29.6 145.4-82 197.9z" p-id="2738"></path><path d="M629 574.4c-8.9-2.3-18.3-1-26.2 3.6-7.9 4.6-13.7 12.1-16.2 20.9-9.1 30.4-41.7 43.9-71.1 43.9-29.4 0-62-13.5-71.1-43.9-2.3-9-8.1-16.6-16.1-21.3-8-4.7-17.5-6-26.5-3.7s-16.7 8.1-21.4 16c-4.7 8-6.1 17.5-3.8 26.5 15.4 61.5 78.8 96.5 138.9 96.5 62.5 0 120.8-35.4 138.9-96.6 2.1-8.9 0.6-18.3-4.2-26.1-4.7-7.9-12.3-13.5-21.2-15.8zM447.7 470c9.8-9.8 15.4-23.2 15.4-37.1 0-13.9-5.5-27.3-15.4-37.1s-23.2-15.4-37.1-15.4c-13.9 0-27.3 5.5-37.1 15.4s-15.4 23.2-15.4 37.1c0 13.9 5.5 27.3 15.4 37.1 9.8 9.8 23.2 15.4 37.1 15.4 13.9-0.1 27.3-5.6 37.1-15.4zM620.5 380.4c-13.9 0-27.3 5.5-37.1 15.4S568 418.9 568 432.9c0 13.9 5.5 27.3 15.4 37.1 9.8 9.8 23.2 15.4 37.1 15.4 13.9 0 27.3-5.5 37.1-15.4 9.8-9.8 15.4-23.2 15.4-37.1 0-13.9-5.5-27.3-15.4-37.1-9.8-9.9-23.2-15.4-37.1-15.4z" p-id="2739"></path></svg>