<?xml version="1.0" standalone="no"?><!DOCTYPE svg PUBLIC "-//W3C//DTD SVG 1.1//EN" "http://www.w3.org/Graphics/SVG/1.1/DTD/svg11.dtd"><svg t="1607339860754" class="icon" viewBox="0 0 1024 1024" version="1.1" xmlns="http://www.w3.org/2000/svg" p-id="1283" xmlns:xlink="http://www.w3.org/1999/xlink" width="200" height="200"><defs><style type="text/css"></style></defs><path d="M614.4 532.48c180.98176 0 327.68 146.69824 327.68 327.68v20.48a81.92 81.92 0 0 1-81.92 81.92H163.84a81.92 81.92 0 0 1-81.92-81.92v-20.48c0-180.98176 146.69824-327.68 327.68-327.68h204.8z m0 61.44H409.6c-144.93696 0-262.81984 115.8144-266.15808 259.95264L143.36 860.16v20.48a20.48 20.48 0 0 0 18.08384 20.33664L163.84 901.12h696.32a20.48 20.48 0 0 0 20.33664-18.08384L880.64 880.64v-20.48c0-144.93696-115.8144-262.81984-259.95264-266.15808L614.4 593.92zM512 61.44c113.11104 0 204.8 91.68896 204.8 204.8s-91.68896 204.8-204.8 204.8-204.8-91.68896-204.8-204.8S398.88896 61.44 512 61.44z m0 61.44a143.36 143.36 0 1 0 0 286.72 143.36 143.36 0 0 0 0-286.72z" fill="#131415" p-id="1284"></path></svg>