<?xml version="1.0" standalone="no"?><!DOCTYPE svg PUBLIC "-//W3C//DTD SVG 1.1//EN" "http://www.w3.org/Graphics/SVG/1.1/DTD/svg11.dtd"><svg t="1607344877871" class="icon" viewBox="0 0 1024 1024" version="1.1" xmlns="http://www.w3.org/2000/svg" p-id="2750" xmlns:xlink="http://www.w3.org/1999/xlink" width="200" height="200"><defs><style type="text/css"></style></defs><path d="M64 496.09V192.76c0-38.66 31.34-70 70-70h756c38.66 0 70 31.34 70 70v457.33c0 38.66-31.34 70-70 70h-34.86c-19.33 0-35 15.67-35 35v111.1c0 26.81-28.9 43.66-52.23 30.46L463.79 724.63a35.04 35.04 0 0 0-17.23-4.54H134c-38.66 0-70-31.34-70-70v-154z" fill="#8C9EFF" p-id="2751"></path><path d="M284.5 421.42m-70 0a70 70 0 1 0 140 0 70 70 0 1 0-140 0Z" fill="#FFD600" p-id="2752"></path><path d="M512 421.42m-70 0a70 70 0 1 0 140 0 70 70 0 1 0-140 0Z" fill="#FFD600" p-id="2753"></path><path d="M739.5 421.42m-70 0a70 70 0 1 0 140 0 70 70 0 1 0-140 0Z" fill="#FFD600" p-id="2754"></path></svg>